<svg id="visual" viewBox="0 0 900 600" width="900" height="600" xmlns="http://www.w3.org/2000/svg" xmlns:xlink="http://www.w3.org/1999/xlink" version="1.1"><g fill="#ff0000"><circle r="27" cx="509" cy="137"></circle><circle r="2" cx="108" cy="291"></circle><circle r="5" cx="253" cy="478"></circle><circle r="19" cx="42" cy="255"></circle><circle r="24" cx="380" cy="314"></circle><circle r="11" cx="697" cy="313"></circle><circle r="14" cx="696" cy="180"></circle><circle r="25" cx="697" cy="97"></circle><circle r="11" cx="726" cy="431"></circle><circle r="15" cx="872" cy="144"></circle><circle r="4" cx="146" cy="406"></circle><circle r="19" cx="480" cy="30"></circle><circle r="14" cx="344" cy="525"></circle><circle r="16" cx="268" cy="323"></circle><circle r="12" cx="147" cy="556"></circle><circle r="17" cx="759" cy="129"></circle><circle r="6" cx="497" cy="542"></circle><circle r="9" cx="629" cy="274"></circle><circle r="24" cx="269" cy="564"></circle><circle r="23" cx="475" cy="409"></circle><circle r="22" cx="617" cy="367"></circle><circle r="13" cx="626" cy="183"></circle><circle r="21" cx="844" cy="66"></circle><circle r="25" cx="548" cy="380"></circle><circle r="3" cx="562" cy="93"></circle></g></svg>