<svg width="64" height="64" viewBox="0 0 64 64" fill="none"
  xmlns="http://www.w3.org/2000/svg">
  <path d="M32 59.5C47.1878 59.5 59.5 47.1878 59.5 32C59.5 16.8122 47.1878 4.5 32 4.5C16.8122 4.5 4.5 16.8122 4.5 32C4.5 47.1878 16.8122 59.5 32 59.5Z" fill="white"/>
  <path d="M32 24.5C29.25 24.5 27 22.25 27 19.5C27 16.75 29.25 14.5 32 14.5C34.75 14.5 37 16.75 37 19.5C37 22.25 34.75 24.5 32 24.5ZM32 17.5C30.9 17.5 30 18.4 30 19.5C30 20.6 30.9 21.5 32 21.5C33.1 21.5 34 20.6 34 19.5C34 18.4 33.1 17.5 32 17.5Z" fill="#71C2FF"/>
  <path d="M32 51C29.25 51 27 48.75 27 46V34C27 31.25 29.25 29 32 29C34.75 29 37 31.25 37 34V46C37 48.75 34.75 51 32 51ZM32 32C30.9 32 30 32.9 30 34V46C30 47.1 30.9 48 32 48C33.1 48 34 47.1 34 46V34C34 32.9 33.1 32 32 32Z" fill="#71C2FF"/>
</svg>
