<svg width="1008" height="720" viewBox="0 0 1008 720" fill="none"
  xmlns="http://www.w3.org/2000/svg">
  <g clip-path="url(#clip0)">
    <g opacity="0.6">
      <path opacity="0.6" d="M611.428 305.82V20.4513H537.299V305.82C492.697 314.998 453.089 340.399 426.145 377.102C399.201 413.806 386.839 459.201 391.453 504.495C396.067 549.79 417.328 591.761 451.119 622.28C484.91 652.799 528.827 669.695 574.363 669.695C619.9 669.695 663.817 652.799 697.608 622.28C731.399 591.761 752.66 549.79 757.274 504.495C761.888 459.201 749.525 413.806 722.582 377.102C695.638 340.399 656.03 314.998 611.428 305.82V305.82Z" fill="#E4EEF3"/>
      <path opacity="0.6" d="M574.403 671.567C528.517 671.589 484.247 654.629 450.123 623.957C416 593.285 394.438 551.07 389.593 505.448C384.749 459.827 396.964 414.026 423.885 376.874C450.807 339.722 490.528 313.846 535.396 304.234V20.1343C535.396 19.6221 535.594 19.1297 535.948 18.7603C536.303 18.3908 536.787 18.173 537.299 18.1526H611.428C611.954 18.1526 612.458 18.3613 612.83 18.733C613.201 19.1046 613.41 19.6087 613.41 20.1343V304.234C658.278 313.846 698 339.722 724.921 376.874C751.842 414.026 764.057 459.827 759.213 505.448C754.368 551.07 732.807 593.285 698.683 623.957C664.56 654.629 620.289 671.589 574.403 671.567V671.567ZM539.122 22.0367V305.82C539.114 306.249 538.96 306.663 538.687 306.994C538.413 307.325 538.036 307.553 537.616 307.643C493.474 316.723 454.273 341.859 427.606 378.183C400.938 414.506 388.702 459.431 393.266 504.258C397.831 549.085 418.871 590.624 452.313 620.829C485.755 651.033 529.218 667.755 574.284 667.755C619.351 667.755 662.814 651.033 696.255 620.829C729.697 590.624 750.738 549.085 755.302 504.258C759.867 459.431 747.63 414.506 720.963 378.183C694.295 341.859 655.094 316.723 610.952 307.643C610.532 307.553 610.155 307.325 609.881 306.994C609.608 306.663 609.455 306.249 609.446 305.82V22.0367H539.122Z" fill="#BEBEBE"/>
    </g>
    <path opacity="0.8" d="M428.126 386.991C410.255 413.515 399.937 444.401 398.276 476.339C396.616 508.277 403.677 540.065 418.702 568.299C433.727 596.533 456.151 620.148 483.571 636.616C510.992 653.083 542.376 661.783 574.363 661.783C606.35 661.783 637.735 653.083 665.155 636.616C692.576 620.148 715 596.533 730.025 568.299C745.05 540.065 752.11 508.277 750.45 476.339C748.79 444.401 738.472 413.515 720.6 386.991H428.126Z" fill="#EE7DA6"/>
    <g opacity="0.6">
      <path opacity="0.6" d="M622.448 10.8599C622.448 13.2145 621.513 15.4727 619.847 17.1377C618.182 18.8026 615.924 19.738 613.569 19.738H535.158C532.803 19.738 530.544 18.8026 528.879 17.1377C527.214 15.4727 526.278 13.2145 526.278 10.8599V10.8599C526.278 8.49791 527.211 6.23149 528.874 4.55392C530.537 2.87634 532.796 1.9234 535.158 1.9025H613.569C615.931 1.9234 618.189 2.87634 619.852 4.55392C621.515 6.23149 622.448 8.49791 622.448 10.8599V10.8599Z" fill="#E4EEF3"/>
      <path opacity="0.6" d="M613.568 21.7197H535.158C532.277 21.7197 529.515 20.5755 527.478 18.5389C525.441 16.5023 524.296 13.7401 524.296 10.8598C524.296 7.97964 525.441 5.21739 527.478 3.18078C529.515 1.14416 532.277 0 535.158 0H613.568C616.449 0 619.212 1.14416 621.249 3.18078C623.286 5.21739 624.43 7.97964 624.43 10.8598C624.43 13.7401 623.286 16.5023 621.249 18.5389C619.212 20.5755 616.449 21.7197 613.568 21.7197V21.7197ZM535.158 3.80491C533.426 3.98928 531.823 4.80785 530.658 6.10303C529.493 7.3982 528.849 9.07842 528.849 10.8202C528.849 12.562 529.493 14.2422 530.658 15.5374C531.823 16.8326 533.426 17.6511 535.158 17.8355H613.568C615.301 17.6511 616.904 16.8326 618.068 15.5374C619.233 14.2422 619.878 12.562 619.878 10.8202C619.878 9.07842 619.233 7.3982 618.068 6.10303C616.904 4.80785 615.301 3.98928 613.568 3.80491H535.158Z" fill="#BEBEBE"/>
      <g style="mix-blend-mode:multiply" opacity="0.4">
        <path d="M613.569 1.9025H535.158C532.938 2.11204 530.875 3.14213 529.374 4.79135C527.873 6.44057 527.041 8.59032 527.041 10.8203C527.041 13.0502 527.873 15.1999 529.374 16.8492C530.875 18.4984 532.938 19.5285 535.158 19.738H613.569C615.789 19.5285 617.851 18.4984 619.353 16.8492C620.854 15.1999 621.686 13.0502 621.686 10.8203C621.686 8.59032 620.854 6.44057 619.353 4.79135C617.851 3.14213 615.789 2.11204 613.569 1.9025V1.9025ZM585.582 15.8538H536.268C534.871 15.9411 533.497 15.4738 532.443 14.5536C531.389 13.6334 530.741 12.3345 530.639 10.9392C530.741 9.54382 531.389 8.24496 532.443 7.32473C533.497 6.40451 534.871 5.93726 536.268 6.02448H585.582C586.978 5.93726 588.353 6.40451 589.407 7.32473C590.461 8.24496 591.109 9.54382 591.211 10.9392C591.109 12.3345 590.461 13.6334 589.407 14.5536C588.353 15.4738 586.978 15.9411 585.582 15.8538V15.8538Z" fill="#C3CCD1"/>
      </g>
      <g style="mix-blend-mode:color-dodge" opacity="0.9">
        <path d="M545.306 10.2257C545.306 10.6072 545.23 10.9849 545.081 11.3364C544.933 11.6879 544.716 12.0061 544.442 12.2721C544.169 12.5382 543.845 12.7467 543.489 12.8854C543.134 13.024 542.754 13.09 542.373 13.0794H537.536C536.772 13.0797 536.038 12.7816 535.49 12.2486C534.942 11.7156 534.624 10.9898 534.603 10.2257V10.2257C534.603 9.44784 534.912 8.70184 535.462 8.1518C536.012 7.60177 536.758 7.29276 537.536 7.29276H542.373C542.761 7.28182 543.147 7.3502 543.508 7.49373C543.869 7.63725 544.197 7.85289 544.471 8.12745C544.746 8.40201 544.961 8.72972 545.105 9.0905C545.249 9.45129 545.317 9.83758 545.306 10.2257Z" fill="#E4F4FE"/>
      </g>
      <g style="mix-blend-mode:multiply" opacity="0.4">
        <path d="M613.568 1.9025H599.535C601.449 2.28181 603.197 3.24988 604.533 4.67124C605.869 6.09259 606.728 7.89611 606.988 9.82939C607.296 12.0061 606.84 14.2223 605.698 16.1009C604.556 17.9796 602.799 19.4049 600.725 20.1344H613.568C615.789 19.9248 617.851 18.8947 619.352 17.2455C620.854 15.5963 621.685 13.4465 621.685 11.2166C621.685 8.98667 620.854 6.83692 619.352 5.1877C617.851 3.53847 615.789 2.50838 613.568 2.29884V1.9025Z" fill="#C3CCD1"/>
      </g>
    </g>
    <g style="mix-blend-mode:multiply" opacity="0.4">
      <path d="M611.428 305.82V20.4514H537.299V305.82C492.697 314.998 453.089 340.399 426.145 377.102C399.201 413.806 386.839 459.201 391.453 504.495C396.067 549.79 417.328 591.761 451.119 622.28C484.91 652.799 528.827 669.695 574.363 669.695C619.9 669.695 663.817 652.799 697.608 622.28C731.399 591.761 752.66 549.79 757.274 504.495C761.888 459.201 749.526 413.806 722.582 377.102C695.638 340.399 656.03 314.998 611.428 305.82V305.82ZM543.166 289.49V35.1954C542.964 33.4311 543.467 31.6585 544.566 30.2631C545.665 28.8678 547.27 27.9625 549.033 27.7442H565.365C582.728 26.2381 582.252 35.1954 582.252 35.1954C582.252 35.1954 583.679 265.075 582.252 286.478C580.825 307.881 555.534 301.856 555.534 301.856C541.184 301.856 543.166 289.49 543.166 289.49V289.49ZM562.907 640.81C475.22 640.81 404.342 567.724 404.342 477.516C404.342 387.308 475.696 314.301 562.907 314.301C650.118 314.301 721.472 387.387 721.472 477.516C721.472 567.645 650.911 640.81 562.907 640.81Z" fill="#C3CCD1"/>
    </g>
    <g style="mix-blend-mode:multiply" opacity="0.5">
      <path d="M611.428 305.82V20.4514H595.096V289.015C594.78 292.943 593.143 296.65 590.45 299.529C587.758 302.408 584.169 304.29 580.27 304.868C580.27 304.868 571.311 307.405 578.288 308.832C585.265 310.259 698.005 313.826 736.14 434.552C774.275 555.279 671.762 656.506 567.902 658.646C465.706 661.103 406.641 578.426 393.48 517.864C399.295 550.743 413.959 581.415 435.899 606.587C457.838 631.759 486.223 650.478 518.003 660.733C549.782 670.989 583.757 672.392 616.274 664.794C648.792 657.195 678.625 640.881 702.567 617.605C726.508 594.329 743.654 564.971 752.162 532.684C760.671 500.397 760.219 466.403 750.856 434.354C741.494 402.305 723.574 373.412 699.022 350.78C674.471 328.147 644.216 312.632 611.507 305.899L611.428 305.82Z" fill="#B5BDC2"/>
    </g>
    <g style="mix-blend-mode:overlay" opacity="0.7">
      <path d="M553.552 32.1832C552.921 32.0903 552.278 32.1366 551.668 32.3188C551.058 32.501 550.495 32.8147 550.018 33.2378C549.542 33.661 549.165 34.1833 548.912 34.768C548.66 35.3527 548.538 35.9857 548.557 36.6223V284.021C548.557 284.021 547.05 294.881 554.979 295.911C556.539 296.071 558.104 295.662 559.387 294.759C560.669 293.855 561.581 292.519 561.956 290.996V38.604C561.956 38.604 562.431 31.7076 553.552 32.1832Z" fill="white"/>
    </g>
    <g style="mix-blend-mode:overlay" opacity="0.7">
      <path d="M619.832 328.094C591.554 319.611 561.468 319.19 532.963 326.879C504.458 334.568 478.666 350.06 458.492 371.613C387.137 446.839 425.827 563.602 466.42 597.212C466.42 597.212 405.927 506.925 455.558 424.089C518.905 318.186 619.832 328.094 619.832 328.094Z" fill="white"/>
    </g>
    <g opacity="0.5">
      <path opacity="0.5" d="M459.84 254.374C459.84 244.782 436.055 245.734 436.055 245.734H114.722C114.722 245.734 91.7301 245.179 86.0217 250.49C84.8365 251.464 83.8918 252.699 83.2608 254.097C82.6297 255.496 82.3294 257.021 82.3831 258.554C82.4368 260.087 82.843 261.587 83.5703 262.938C84.2975 264.289 85.3263 265.454 86.5767 266.344C92.9494 270.291 98.2231 275.782 101.909 282.308C105.596 288.834 107.576 296.185 107.666 303.679V591.743C107.666 591.743 104.336 644.219 149.686 644.219H410.764C456.113 644.219 452.783 591.743 452.783 591.743V303.838C452.783 303.838 453.338 272.13 452.783 267.453C452.696 266.072 453.068 264.7 453.843 263.553C454.617 262.406 455.75 261.547 457.065 261.112C458.032 260.293 458.79 259.253 459.272 258.081C459.755 256.908 459.95 255.637 459.84 254.374Z" fill="#E4EEF3"/>
      <path opacity="0.5" d="M149.686 646.121H410.764C416.478 646.429 422.193 645.514 427.525 643.436C432.858 641.358 437.685 638.166 441.684 634.072C456.589 618.219 455.083 592.694 455.083 591.743V303.679V267.057C455.003 266.105 455.25 265.155 455.784 264.362C456.317 263.57 457.104 262.982 458.016 262.697L458.73 262.301C459.869 261.326 460.774 260.107 461.378 258.735C461.982 257.363 462.269 255.872 462.218 254.374C462.108 252.394 461.259 250.527 459.84 249.142C453.576 243.435 437.72 243.99 436.055 243.99H114.563C112.106 243.911 90.6201 243.593 84.4361 249.301C82.9281 250.668 81.7622 252.37 81.0324 254.27C80.3026 256.17 80.0291 258.215 80.2341 260.24C80.398 261.877 80.9514 263.45 81.8479 264.829C82.7444 266.208 83.9581 267.353 85.3875 268.167C91.4388 271.977 96.4476 277.232 99.9628 283.459C103.478 289.686 105.39 296.689 105.525 303.838V591.743C105.446 592.773 104.019 618.298 118.924 634.152C122.89 638.239 127.691 641.424 133 643.49C138.308 645.556 143.999 646.453 149.686 646.121Z" fill="#BEBEBE"/>
    </g>
    <path opacity="0.8" d="M448.106 411.089H112.344V586.59C112.344 586.59 109.172 637.56 153.333 637.56H407.037C451.118 637.56 447.947 586.59 447.947 586.59L448.106 411.089Z" fill="#17B8D3"/>
    <g style="mix-blend-mode:multiply" opacity="0.4">
      <path d="M459.84 254.374C459.84 244.782 436.055 245.734 436.055 245.734H114.722C114.722 245.734 91.7301 245.179 86.0217 250.49C84.8365 251.464 83.8918 252.699 83.2608 254.097C82.6297 255.496 82.3294 257.021 82.3831 258.554C82.4368 260.087 82.843 261.587 83.5703 262.938C84.2975 264.289 85.3263 265.454 86.5767 266.344C92.9494 270.291 98.2231 275.782 101.909 282.308C105.596 288.834 107.576 296.185 107.666 303.679V591.743C107.666 591.743 104.336 644.219 149.686 644.219H410.764C456.113 644.219 452.783 591.743 452.783 591.743V303.838C452.783 303.838 453.338 272.13 452.783 267.453C452.696 266.072 453.068 264.7 453.843 263.553C454.617 262.406 455.75 261.547 457.065 261.112C458.032 260.293 458.79 259.253 459.272 258.081C459.755 256.908 459.95 255.637 459.84 254.374ZM408.94 255.959C407.513 261.667 394.749 262.618 394.749 262.618L220.327 268.722H337.269L338.775 594.517C334.097 619.17 307.062 619.725 307.062 619.725H157.614C117.418 619.725 116.942 575.73 116.942 575.73V304.155C115.991 284.338 109.886 273.002 102.275 266.819C94.6636 260.636 94.3464 258.337 94.3464 258.337C90.5409 248.904 104.732 249.38 104.732 249.38H397.286C411.477 249.38 409.178 255.959 409.178 255.959H408.94Z" fill="#C3CCD1"/>
    </g>
    <g style="mix-blend-mode:overlay" opacity="0.7">
      <path d="M161.895 257.862H129.706C129.706 257.862 114.563 259.289 119.796 266.819C119.796 266.819 136.842 281.008 138.745 295.198V573.194C138.745 573.194 141.995 608.865 172.281 608.865L193.053 608.231V296.149C193.053 296.149 188.851 263.569 161.895 257.862Z" fill="white"/>
    </g>
    <g style="mix-blend-mode:multiply" opacity="0.5">
      <path d="M459.839 254.374C459.839 244.782 436.055 245.734 436.055 245.734H402.201C402.982 246.05 403.816 246.211 404.659 246.209C422.022 246.209 446.758 245.575 448.264 253.581C450.722 267.057 417.423 266.027 417.423 266.027L418.137 602.444C416.677 612.468 411.562 621.599 403.777 628.082C395.991 634.564 386.083 637.94 375.958 637.56H147.228C140.045 637.07 133.074 634.926 126.857 631.296C120.641 627.665 115.348 622.647 111.392 616.633V617.664C113.806 625.79 118.893 632.864 125.828 637.741C132.763 642.618 141.141 645.012 149.606 644.536H410.764C456.113 644.536 452.783 592.06 452.783 592.06V303.838C452.783 303.838 453.338 272.13 452.783 267.453C452.696 266.072 453.068 264.7 453.843 263.553C454.617 262.406 455.75 261.547 457.065 261.112C458.032 260.293 458.789 259.253 459.272 258.081C459.755 256.908 459.95 255.637 459.839 254.374Z" fill="#B5BDC2"/>
    </g>
    <g opacity="0.5">
      <path opacity="0.5" d="M227.224 456.114C227.224 450.406 213.033 450.961 213.033 450.961H21.2478C21.2478 450.961 7.53191 450.961 4.12275 453.894C3.36959 454.438 2.7563 455.152 2.33332 455.979C1.91035 456.806 1.68979 457.721 1.68979 458.65C1.68979 459.579 1.91035 460.494 2.33332 461.321C2.7563 462.148 3.36959 462.863 4.12275 463.406C7.91091 465.772 11.0435 469.051 13.2324 472.943C15.4213 476.836 16.5964 481.216 16.6494 485.681V657.298C16.6494 657.298 14.6674 689.006 41.7027 689.006H198.207C225.242 689.006 223.26 657.298 223.26 657.298V485.681C223.26 485.681 223.26 466.894 223.26 463.961C223.2 463.135 223.417 462.313 223.876 461.624C224.336 460.935 225.011 460.418 225.797 460.156C226.34 459.645 226.753 459.011 227.001 458.308C227.25 457.605 227.326 456.852 227.224 456.114V456.114Z" fill="#E4EEF3"/>
      <path opacity="0.5" d="M198.207 690.512H42.0991C38.6248 690.673 35.1555 690.1 31.9178 688.829C28.6801 687.559 25.7467 685.62 23.3091 683.14C17.5801 675.762 14.7589 666.539 15.3809 657.219V485.681C15.3111 481.555 14.2168 477.512 12.1962 473.914C10.1757 470.317 7.29235 467.278 3.80559 465.071C2.79405 464.553 1.92096 463.8 1.25901 462.877C0.597071 461.953 0.165428 460.884 2.42537e-05 459.76C-0.139103 458.431 0.0319184 457.088 0.499647 455.836C0.967375 454.585 1.71906 453.459 2.69564 452.546C6.58049 448.979 18.5522 449.138 21.2478 449.138H212.953C218.042 448.736 223.131 449.898 227.541 452.467C228.039 452.919 228.437 453.469 228.71 454.084C228.983 454.698 229.125 455.362 229.127 456.034C229.246 457.09 229.098 458.158 228.696 459.142C228.294 460.125 227.652 460.992 226.828 461.662L226.114 462.059C225.73 462.169 225.399 462.414 225.18 462.749C224.962 463.084 224.871 463.486 224.925 463.882C224.925 466.894 224.925 484.967 224.925 485.76V657.298C225.535 666.592 222.714 675.786 216.997 683.14C214.565 685.629 211.633 687.573 208.394 688.843C205.154 690.114 201.682 690.683 198.207 690.512V690.512ZM20.2964 452.705C15.367 452.363 10.4258 453.177 5.86694 455.083C5.30702 455.57 4.87119 456.184 4.59546 456.873C4.31974 457.563 4.21204 458.307 4.28129 459.046C4.31643 459.567 4.47953 460.071 4.75614 460.514C5.03274 460.956 5.41429 461.323 5.86694 461.583C9.93931 464.086 13.3112 467.58 15.668 471.739C18.0248 475.897 19.2898 480.584 19.345 485.364V657.298C18.9132 665.651 21.4709 673.885 26.5597 680.524C28.6192 682.612 31.096 684.241 33.8283 685.307C36.5606 686.372 39.487 686.849 42.4163 686.707H198.207C201.135 686.839 204.058 686.358 206.789 685.293C209.52 684.228 211.998 682.603 214.063 680.524C219.076 673.91 221.601 665.745 221.199 657.457V485.681C221.199 479.181 221.199 466.339 221.199 464.12C221.092 462.941 221.366 461.759 221.979 460.746C222.592 459.733 223.513 458.943 224.608 458.492C225.559 457.461 225.48 456.589 225.401 456.431C225.39 456.248 225.342 456.07 225.261 455.906C225.179 455.743 225.065 455.597 224.925 455.479C221.283 453.618 217.181 452.847 213.112 453.26H19.9L20.2964 452.705Z" fill="#BEBEBE"/>
    </g>
    <path opacity="0.8" d="M220.089 549.572H19.8999V654.365C19.8999 654.365 17.9178 684.805 44.2397 684.805H195.67C221.991 684.805 220.089 654.365 220.089 654.365V549.572Z" fill="#6A4B99"/>
    <g style="mix-blend-mode:multiply" opacity="0.4">
      <path d="M227.224 456.114C227.224 450.406 213.033 450.961 213.033 450.961H21.2478C21.2478 450.961 7.53191 450.961 4.12275 453.894C3.36959 454.438 2.7563 455.152 2.33332 455.979C1.91035 456.806 1.68979 457.722 1.68979 458.65C1.68979 459.579 1.91035 460.494 2.33332 461.321C2.7563 462.148 3.36959 462.863 4.12275 463.406C7.91091 465.772 11.0435 469.051 13.2324 472.944C15.4213 476.836 16.5964 481.216 16.6494 485.681V657.298C16.6494 657.298 14.6674 689.006 41.7027 689.006H198.207C225.242 689.006 223.26 657.298 223.26 657.298V485.681C223.26 485.681 223.26 466.894 223.26 463.961C223.2 463.135 223.417 462.313 223.876 461.624C224.336 460.935 225.011 460.418 225.797 460.156C226.34 459.645 226.753 459.011 227.001 458.308C227.25 457.605 227.326 456.852 227.224 456.114V456.114ZM196.859 457.065C195.987 460.473 188.376 461.028 188.376 461.028L84.3568 464.675H153.967L154.918 659.122C153.824 663.378 151.362 667.158 147.91 669.879C144.457 672.601 140.207 674.112 135.811 674.183H46.8561C23.0713 674.183 22.5956 647.945 22.5956 647.945V485.84C22.8092 481.72 22.1418 477.603 20.638 473.762C19.1341 469.921 16.8284 466.445 13.8745 463.565C9.35541 459.919 9.03828 458.492 9.03828 458.492C6.81836 452.864 15.3016 453.181 15.3016 453.181H189.724C198.207 453.181 196.859 457.065 196.859 457.065Z" fill="#C3CCD1"/>
    </g>
    <g style="mix-blend-mode:overlay" opacity="0.7">
      <path d="M49.3931 458.254H30.2066C30.2066 458.254 21.1684 459.047 24.2604 463.565C29.6354 467.973 33.5811 473.877 35.5979 480.528V646.28C35.5979 646.28 37.5007 667.603 55.4978 667.603L67.9452 667.128V481.083C67.9452 481.083 65.4874 461.583 49.3931 458.254Z" fill="white"/>
    </g>
    <g style="mix-blend-mode:multiply" opacity="0.5">
      <path d="M227.224 456.114C227.224 450.406 213.033 450.961 213.033 450.961H192.736C193.203 451.089 193.696 451.089 194.163 450.961C204.549 450.961 219.296 450.961 220.168 455.4C221.674 463.327 201.774 462.772 201.774 462.772L202.171 663.243C201.312 669.222 198.268 674.67 193.626 678.535C188.984 682.401 183.074 684.408 177.038 684.17H40.672C36.3812 683.868 32.2179 682.581 28.5054 680.409C24.7929 678.236 21.6311 675.238 19.2657 671.646V672.28C20.72 677.098 23.7576 681.284 27.887 684.161C32.0163 687.038 36.9959 688.438 42.0198 688.134H198.207C225.242 688.134 223.26 656.426 223.26 656.426V485.681C223.26 485.681 223.26 466.894 223.26 463.961C223.2 463.135 223.417 462.313 223.876 461.624C224.335 460.935 225.011 460.418 225.797 460.156C226.34 459.645 226.753 459.011 227.001 458.308C227.249 457.605 227.326 456.852 227.224 456.114V456.114Z" fill="#B5BDC2"/>
    </g>
    <g opacity="0.5">
      <path opacity="0.5" d="M649.087 657.932C649.098 661.811 648.342 665.655 646.865 669.241C645.387 672.828 643.217 676.088 640.477 678.835C637.737 681.581 634.482 683.761 630.899 685.248C627.315 686.734 623.474 687.5 619.594 687.5V687.5C615.714 687.5 611.873 686.734 608.289 685.248C604.706 683.761 601.451 681.581 598.711 678.835C595.971 676.088 593.801 672.828 592.323 669.241C590.846 665.655 590.09 661.811 590.101 657.932V376.29H649.087V657.932Z" fill="#E4EEF3"/>
      <path opacity="0.5" d="M619.594 689.64C611.183 689.64 603.117 686.299 597.169 680.353C591.222 674.407 587.881 666.342 587.881 657.932V376.29C587.881 375.785 588.081 375.301 588.438 374.944C588.795 374.588 589.279 374.387 589.784 374.387H648.77C649.275 374.387 649.759 374.588 650.115 374.944C650.472 375.301 650.673 375.785 650.673 376.29V657.932C650.674 666.233 647.42 674.203 641.61 680.132C635.799 686.06 627.894 689.474 619.594 689.64ZM592.004 378.192V657.932C592.004 665.291 594.927 672.347 600.131 677.55C605.335 682.753 612.393 685.677 619.752 685.677C627.112 685.677 634.17 682.753 639.374 677.55C644.578 672.347 647.501 665.291 647.501 657.932V378.192H592.004Z" fill="#BEBEBE"/>
    </g>
    <path opacity="0.8" d="M593.193 483.541V656.347C592.995 659.962 593.537 663.579 594.785 666.977C596.032 670.375 597.959 673.483 600.449 676.112C602.938 678.741 605.937 680.834 609.263 682.265C612.589 683.696 616.172 684.434 619.792 684.434C623.413 684.434 626.995 683.696 630.321 682.265C633.647 680.834 636.646 678.741 639.136 676.112C641.625 673.483 643.552 670.375 644.8 666.977C646.047 663.579 646.589 659.962 646.392 656.347V483.541H593.193Z" fill="#17B8D3"/>
    <g style="mix-blend-mode:multiply" opacity="0.4">
      <path d="M590.101 376.29V657.932C590.101 665.753 593.208 673.254 598.739 678.784C604.27 684.314 611.772 687.42 619.594 687.42C627.416 687.42 634.918 684.314 640.449 678.784C645.98 673.254 649.087 665.753 649.087 657.932V376.29H590.101ZM629.742 637.877C629.742 652.384 625.461 669.585 611.666 669.585C601.676 669.585 593.589 662.213 593.589 637.877V380.887L629.742 381.442V637.877Z" fill="#C3CCD1"/>
    </g>
    <g style="mix-blend-mode:multiply" opacity="0.5">
      <path d="M590.101 376.29V379.143H639.89V657.457C639.737 660.774 638.89 664.022 637.405 666.992C635.92 669.962 633.83 672.588 631.268 674.702C628.706 676.815 625.73 678.368 622.532 679.262C619.333 680.155 615.983 680.369 612.696 679.89C593.51 678.701 591.369 663.561 590.101 652.304V657.932C590.101 665.753 593.208 673.254 598.739 678.784C604.27 684.314 611.772 687.42 619.594 687.42C627.416 687.42 634.918 684.314 640.449 678.784C645.98 673.254 649.087 665.753 649.087 657.932V376.29H590.101Z" fill="#B5BDC2"/>
    </g>
    <g opacity="0.6">
      <path opacity="0.6" d="M655.509 369.631C655.509 371.397 654.807 373.091 653.558 374.34C652.309 375.588 650.615 376.29 648.849 376.29H590.339C588.572 376.29 586.878 375.588 585.629 374.34C584.38 373.091 583.679 371.397 583.679 369.631C583.679 368.757 583.851 367.891 584.186 367.083C584.52 366.275 585.011 365.541 585.629 364.923C586.248 364.305 586.982 363.814 587.79 363.48C588.598 363.145 589.464 362.973 590.339 362.973H648.849C649.724 362.973 650.59 363.145 651.398 363.48C652.206 363.814 652.94 364.305 653.558 364.923C654.177 365.541 654.667 366.275 655.002 367.083C655.337 367.891 655.509 368.757 655.509 369.631V369.631Z" fill="#E4EEF3"/>
      <path opacity="0.6" d="M648.849 378.192H590.339C588.068 378.192 585.89 377.29 584.284 375.685C582.678 374.079 581.776 371.902 581.776 369.631C581.776 367.361 582.678 365.183 584.284 363.578C585.89 361.972 588.068 361.07 590.339 361.07H648.849C651.12 361.07 653.298 361.972 654.904 363.578C656.51 365.183 657.412 367.361 657.412 369.631C657.412 371.902 656.51 374.079 654.904 375.685C653.298 377.29 651.12 378.192 648.849 378.192V378.192ZM590.339 364.637C589.077 364.637 587.867 365.138 586.975 366.03C586.083 366.922 585.582 368.132 585.582 369.393C585.582 370.655 586.083 371.865 586.975 372.756C587.867 373.648 589.077 374.15 590.339 374.15H648.849C650.111 374.15 651.321 373.648 652.213 372.756C653.105 371.865 653.606 370.655 653.606 369.393C653.606 368.132 653.105 366.922 652.213 366.03C651.321 365.138 650.111 364.637 648.849 364.637H590.339Z" fill="#BEBEBE"/>
    </g>
    <g style="mix-blend-mode:multiply" opacity="0.4">
      <path d="M648.849 362.973H590.339C588.572 362.973 586.878 363.674 585.629 364.923C584.38 366.172 583.679 367.865 583.679 369.631C583.679 371.397 584.38 373.091 585.629 374.34C586.878 375.588 588.572 376.29 590.339 376.29H648.849C650.615 376.29 652.309 375.588 653.558 374.34C654.807 373.091 655.509 371.397 655.509 369.631C655.509 367.865 654.807 366.172 653.558 364.923C652.309 363.674 650.615 362.973 648.849 362.973V362.973ZM627.998 373.278H591.131C590.164 373.278 589.237 372.893 588.553 372.21C587.869 371.526 587.484 370.598 587.484 369.631C587.484 368.664 587.869 367.737 588.553 367.053C589.237 366.369 590.164 365.985 591.131 365.985H627.998C628.965 365.985 629.893 366.369 630.577 367.053C631.261 367.737 631.645 368.664 631.645 369.631C631.645 370.598 631.261 371.526 630.577 372.21C629.893 372.893 628.965 373.278 627.998 373.278V373.278Z" fill="#C3CCD1"/>
    </g>
    <g style="mix-blend-mode:multiply" opacity="0.4">
      <path d="M648.849 362.973H638.384C639.934 363.192 641.362 363.939 642.427 365.087C643.492 366.235 644.129 367.715 644.231 369.277C644.334 370.839 643.895 372.389 642.989 373.666C642.083 374.944 640.765 375.87 639.256 376.29H648.849C650.615 376.29 652.309 375.588 653.558 374.34C654.807 373.091 655.509 371.397 655.509 369.631C655.509 367.865 654.807 366.172 653.558 364.923C652.309 363.674 650.615 362.973 648.849 362.973V362.973Z" fill="#C3CCD1"/>
    </g>
    <g style="mix-blend-mode:color-dodge" opacity="0.9">
      <path d="M597.87 369.156C597.87 369.723 597.645 370.268 597.243 370.669C596.842 371.07 596.298 371.296 595.73 371.296H592.083C591.508 371.296 590.955 371.073 590.541 370.674C590.126 370.275 589.883 369.73 589.863 369.156V369.156C589.883 368.581 590.126 368.036 590.541 367.637C590.955 367.238 591.508 367.015 592.083 367.015H595.73C596.298 367.015 596.842 367.241 597.243 367.642C597.645 368.044 597.87 368.588 597.87 369.156Z" fill="#E4F4FE"/>
    </g>
    <g style="mix-blend-mode:overlay" opacity="0.7">
      <path d="M607.067 389.686H595.73V634.707C595.73 634.707 595.73 654.048 603.024 654.603C603.024 654.603 605.72 655.634 607.067 650.798V389.686Z" fill="white"/>
    </g>
    <g opacity="0.5">
      <path opacity="0.5" d="M752.313 657.932C752.323 661.811 751.568 665.655 750.091 669.241C748.613 672.828 746.443 676.088 743.703 678.835C740.963 681.581 737.708 683.761 734.125 685.248C730.541 686.734 726.7 687.5 722.82 687.5V687.5C714.991 687.479 707.489 684.354 701.96 678.812C696.432 673.269 693.327 665.76 693.327 657.932V376.29H752.313V657.932Z" fill="#E4EEF3"/>
      <path opacity="0.5" d="M722.82 689.64C714.409 689.64 706.343 686.299 700.395 680.353C694.448 674.407 691.107 666.342 691.107 657.932V376.29C691.107 375.785 691.307 375.301 691.664 374.944C692.021 374.588 692.505 374.387 693.01 374.387H751.996C752.508 374.387 753.001 374.585 753.37 374.939C753.74 375.294 753.957 375.778 753.978 376.29V657.932C753.979 666.246 750.714 674.228 744.887 680.159C739.059 686.09 731.134 689.494 722.82 689.64V689.64ZM695.23 378.192V657.932C695.23 665.291 698.153 672.347 703.357 677.55C708.561 682.753 715.619 685.677 722.978 685.677C730.338 685.677 737.396 682.753 742.6 677.55C747.804 672.347 750.727 665.291 750.727 657.932V378.192H695.23Z" fill="#BEBEBE"/>
    </g>
    <path opacity="0.8" d="M696.419 483.541V656.347C696.419 663.411 699.225 670.185 704.221 675.18C709.217 680.175 715.993 682.981 723.058 682.981C730.123 682.981 736.899 680.175 741.895 675.18C746.89 670.185 749.697 663.411 749.697 656.347V483.541H696.419Z" fill="#A3C61F"/>
    <g style="mix-blend-mode:multiply" opacity="0.4">
      <path d="M693.327 376.29V657.932C693.327 665.753 696.434 673.254 701.965 678.784C707.496 684.314 714.998 687.42 722.82 687.42C730.642 687.42 738.144 684.314 743.675 678.784C749.206 673.254 752.313 665.753 752.313 657.932V376.29H693.327ZM732.968 637.877C732.968 652.384 728.608 669.585 714.813 669.585C704.823 669.585 696.736 662.213 696.736 637.877V380.887L732.968 381.442V637.877Z" fill="#C3CCD1"/>
    </g>
    <g style="mix-blend-mode:multiply" opacity="0.5">
      <path d="M693.327 376.29V379.143H743.116V657.457C742.962 660.766 742.117 664.007 740.637 666.971C739.157 669.934 737.074 672.556 734.521 674.669C731.968 676.781 729.002 678.336 725.813 679.235C722.624 680.134 719.282 680.357 716.002 679.89C696.815 678.701 694.595 663.561 693.327 652.304V657.932C693.327 665.753 696.434 673.254 701.965 678.784C707.496 684.314 714.998 687.42 722.82 687.42C730.642 687.42 738.144 684.314 743.675 678.784C749.206 673.254 752.313 665.753 752.313 657.932V376.29H693.327Z" fill="#B5BDC2"/>
    </g>
    <g opacity="0.6">
      <path opacity="0.6" d="M758.814 369.631C758.794 371.391 758.085 373.072 756.841 374.317C755.596 375.561 753.914 376.269 752.154 376.29H693.565C692.69 376.29 691.824 376.118 691.016 375.783C690.208 375.448 689.474 374.958 688.855 374.34C688.237 373.721 687.746 372.987 687.412 372.179C687.077 371.371 686.905 370.506 686.905 369.631V369.631C686.905 368.757 687.077 367.891 687.412 367.083C687.746 366.275 688.237 365.541 688.855 364.923C689.474 364.305 690.208 363.814 691.016 363.48C691.824 363.145 692.69 362.973 693.565 362.973H752.154C753.914 362.993 755.596 363.701 756.841 364.946C758.085 366.19 758.794 367.872 758.814 369.631V369.631Z" fill="#E4EEF3"/>
      <path opacity="0.6" d="M752.155 378.192H693.565C691.294 378.192 689.116 377.29 687.51 375.685C685.904 374.079 685.002 371.902 685.002 369.631C685.002 367.361 685.904 365.183 687.51 363.578C689.116 361.972 691.294 361.07 693.565 361.07H752.155C754.425 361.07 756.603 361.972 758.209 363.578C759.815 365.183 760.717 367.361 760.717 369.631C760.717 371.902 759.815 374.079 758.209 375.685C756.603 377.29 754.425 378.192 752.155 378.192V378.192ZM693.565 364.637C692.303 364.637 691.093 365.138 690.201 366.03C689.309 366.922 688.808 368.132 688.808 369.393C688.808 370.655 689.309 371.865 690.201 372.756C691.093 373.648 692.303 374.15 693.565 374.15H752.155C753.416 374.15 754.626 373.648 755.518 372.756C756.41 371.865 756.912 370.655 756.912 369.393C756.912 368.132 756.41 366.922 755.518 366.03C754.626 365.138 753.416 364.637 752.155 364.637H693.565Z" fill="#BEBEBE"/>
    </g>
    <g style="mix-blend-mode:multiply" opacity="0.4">
      <path d="M752.155 362.973H693.565C691.799 362.973 690.105 363.674 688.856 364.923C687.607 366.172 686.905 367.865 686.905 369.631C686.905 371.397 687.607 373.091 688.856 374.34C690.105 375.588 691.799 376.29 693.565 376.29H752.155C753.921 376.29 755.615 375.588 756.864 374.34C758.113 373.091 758.814 371.397 758.814 369.631C758.814 367.865 758.113 366.172 756.864 364.923C755.615 363.674 753.921 362.973 752.155 362.973V362.973ZM731.224 373.278H694.358C693.39 373.278 692.463 372.893 691.779 372.21C691.095 371.526 690.711 370.598 690.711 369.631C690.711 368.664 691.095 367.737 691.779 367.053C692.463 366.369 693.39 365.985 694.358 365.985H731.224C732.191 365.985 733.119 366.369 733.803 367.053C734.487 367.737 734.871 368.664 734.871 369.631C734.871 370.598 734.487 371.526 733.803 372.21C733.119 372.893 732.191 373.278 731.224 373.278V373.278Z" fill="#C3CCD1"/>
    </g>
    <g style="mix-blend-mode:multiply" opacity="0.4">
      <path d="M752.155 362.973H741.61C743.113 363.25 744.481 364.018 745.499 365.156C746.518 366.295 747.13 367.739 747.239 369.263C747.347 370.787 746.947 372.304 746.101 373.575C745.254 374.847 744.009 375.802 742.561 376.29H752.155C753.921 376.29 755.615 375.588 756.864 374.34C758.113 373.091 758.814 371.397 758.814 369.631C758.814 367.865 758.113 366.172 756.864 364.923C755.615 363.674 753.921 362.973 752.155 362.973V362.973Z" fill="#C3CCD1"/>
    </g>
    <g style="mix-blend-mode:color-dodge" opacity="0.9">
      <path d="M701.096 369.156C701.096 369.723 700.871 370.268 700.47 370.669C700.068 371.07 699.524 371.296 698.956 371.296H695.309C694.741 371.296 694.197 371.07 693.795 370.669C693.394 370.268 693.168 369.723 693.168 369.156V369.156C693.168 368.588 693.394 368.044 693.795 367.642C694.197 367.241 694.741 367.015 695.309 367.015H698.956C699.524 367.015 700.068 367.241 700.47 367.642C700.871 368.044 701.096 368.588 701.096 369.156Z" fill="#E4F4FE"/>
    </g>
    <g style="mix-blend-mode:overlay" opacity="0.7">
      <path d="M710.373 389.686H698.956V634.707C698.956 634.707 698.956 654.048 706.25 654.603C706.25 654.603 709.025 655.634 710.373 650.798V389.686Z" fill="white"/>
    </g>
    <g opacity="0.5">
      <path opacity="0.5" d="M855.619 657.932C855.619 661.815 854.854 665.66 853.367 669.247C851.881 672.835 849.703 676.094 846.957 678.84C844.211 681.585 840.951 683.763 837.363 685.249C833.775 686.735 829.93 687.5 826.046 687.5C818.217 687.479 810.715 684.354 805.186 678.812C799.658 673.269 796.553 665.76 796.553 657.932V376.29H855.619V657.932Z" fill="#E4EEF3"/>
      <path opacity="0.5" d="M826.046 689.64C817.635 689.64 809.569 686.299 803.622 680.353C797.674 674.407 794.333 666.342 794.333 657.932V376.29C794.333 375.785 794.533 375.301 794.89 374.944C795.247 374.588 795.731 374.387 796.236 374.387H855.301C855.806 374.387 856.29 374.588 856.647 374.944C857.004 375.301 857.204 375.785 857.204 376.29V657.932C857.205 666.246 853.941 674.228 848.113 680.159C842.285 686.09 834.36 689.494 826.046 689.64V689.64ZM798.535 378.271V657.932C798.535 665.291 801.458 672.347 806.662 677.55C811.866 682.753 818.924 685.677 826.284 685.677C833.643 685.677 840.701 682.753 845.905 677.55C851.109 672.347 854.033 665.291 854.033 657.932V378.192L798.535 378.271Z" fill="#BEBEBE"/>
    </g>
    <path opacity="0.8" d="M799.645 483.541V656.347C799.645 659.845 800.334 663.308 801.673 666.54C803.011 669.771 804.974 672.707 807.447 675.18C809.921 677.654 812.858 679.615 816.089 680.954C819.321 682.292 822.786 682.981 826.284 682.981C829.782 682.981 833.246 682.292 836.478 680.954C839.71 679.615 842.647 677.654 845.12 675.18C847.594 672.707 849.556 669.771 850.895 666.54C852.234 663.308 852.923 659.845 852.923 656.347V483.541H799.645Z" fill="#F49624"/>
    <g style="mix-blend-mode:multiply" opacity="0.4">
      <path d="M796.553 376.29V657.932C796.345 661.939 796.955 665.945 798.346 669.709C799.736 673.472 801.878 676.913 804.64 679.822C807.403 682.731 810.729 685.048 814.416 686.631C818.103 688.214 822.073 689.03 826.086 689.03C830.098 689.03 834.069 688.214 837.755 686.631C841.442 685.048 844.768 682.731 847.531 679.822C850.294 676.913 852.435 673.472 853.826 669.709C855.216 665.945 855.826 661.939 855.618 657.932V376.29H796.553ZM836.194 637.877C836.194 652.384 831.834 669.585 818.118 669.585C808.128 669.585 799.962 662.213 799.962 637.877V380.887L836.194 381.442V637.877Z" fill="#C3CCD1"/>
    </g>
    <g style="mix-blend-mode:multiply" opacity="0.5">
      <path d="M796.553 376.29V379.143H846.422V657.457C846.268 660.774 845.422 664.022 843.937 666.992C842.452 669.962 840.361 672.588 837.799 674.702C835.238 676.815 832.262 678.368 829.063 679.262C825.864 680.155 822.514 680.369 819.228 679.89C800.041 678.701 797.901 663.56 796.553 652.304V657.932C796.345 661.939 796.955 665.945 798.346 669.709C799.736 673.472 801.878 676.913 804.64 679.822C807.403 682.731 810.729 685.048 814.416 686.631C818.103 688.214 822.073 689.03 826.086 689.03C830.098 689.03 834.069 688.214 837.755 686.631C841.442 685.048 844.768 682.731 847.531 679.822C850.294 676.913 852.435 673.472 853.826 669.709C855.216 665.945 855.826 661.939 855.618 657.932V376.29H796.553Z" fill="#B5BDC2"/>
    </g>
    <g opacity="0.6">
      <path opacity="0.6" d="M862.04 369.631C862.02 371.391 861.311 373.072 860.067 374.317C858.822 375.561 857.14 376.269 855.381 376.29H796.791C795.031 376.269 793.349 375.561 792.104 374.317C790.86 373.072 790.152 371.391 790.131 369.631C790.152 367.872 790.86 366.19 792.104 364.946C793.349 363.701 795.031 362.993 796.791 362.973H855.381C857.14 362.993 858.822 363.701 860.067 364.946C861.311 366.19 862.02 367.872 862.04 369.631V369.631Z" fill="#E4EEF3"/>
      <path opacity="0.6" d="M855.381 378.192H796.791C794.52 378.192 792.342 377.29 790.736 375.685C789.13 374.079 788.228 371.902 788.228 369.631C788.228 367.361 789.13 365.183 790.736 363.578C792.342 361.972 794.52 361.07 796.791 361.07H855.381C857.651 361.07 859.829 361.972 861.435 363.578C863.041 365.183 863.943 367.361 863.943 369.631C863.943 371.902 863.041 374.079 861.435 375.685C859.829 377.29 857.651 378.192 855.381 378.192V378.192ZM796.791 364.637C795.529 364.637 794.319 365.138 793.427 366.03C792.535 366.922 792.034 368.132 792.034 369.393C792.034 370.655 792.535 371.865 793.427 372.756C794.319 373.648 795.529 374.15 796.791 374.15H855.381C856.642 374.15 857.852 373.648 858.744 372.756C859.636 371.865 860.138 370.655 860.138 369.393C860.138 368.132 859.636 366.922 858.744 366.03C857.852 365.138 856.642 364.637 855.381 364.637H796.791Z" fill="#BEBEBE"/>
    </g>
    <g style="mix-blend-mode:multiply" opacity="0.4">
      <path d="M855.381 362.973H796.791C795.024 362.973 793.331 363.674 792.082 364.923C790.833 366.172 790.131 367.865 790.131 369.631C790.131 371.397 790.833 373.091 792.082 374.34C793.331 375.588 795.024 376.29 796.791 376.29H855.381C857.147 376.29 858.841 375.588 860.09 374.34C861.339 373.091 862.04 371.397 862.04 369.631C862.04 367.865 861.339 366.172 860.09 364.923C858.841 363.674 857.147 362.973 855.381 362.973ZM834.45 373.278H797.584C796.616 373.278 795.689 372.893 795.005 372.21C794.321 371.526 793.937 370.598 793.937 369.631C793.937 368.664 794.321 367.737 795.005 367.053C795.689 366.369 796.616 365.985 797.584 365.985H834.45C835.417 365.985 836.345 366.369 837.029 367.053C837.713 367.737 838.097 368.664 838.097 369.631C838.097 370.598 837.713 371.526 837.029 372.21C836.345 372.893 835.417 373.278 834.45 373.278Z" fill="#C3CCD1"/>
    </g>
    <g style="mix-blend-mode:multiply" opacity="0.4">
      <path d="M855.381 362.973H844.915C846.414 363.261 847.775 364.038 848.785 365.181C849.794 366.325 850.396 367.772 850.496 369.294C850.596 370.817 850.188 372.33 849.336 373.595C848.484 374.861 847.236 375.809 845.788 376.29H855.381C857.147 376.29 858.841 375.588 860.09 374.34C861.339 373.091 862.041 371.397 862.041 369.631C862.041 367.865 861.339 366.172 860.09 364.923C858.841 363.674 857.147 362.973 855.381 362.973Z" fill="#C3CCD1"/>
    </g>
    <g style="mix-blend-mode:color-dodge" opacity="0.9">
      <path d="M804.323 369.156C804.323 369.723 804.097 370.268 803.696 370.669C803.294 371.07 802.75 371.296 802.182 371.296H798.535C797.967 371.296 797.423 371.07 797.021 370.669C796.62 370.268 796.394 369.723 796.394 369.156V369.156C796.394 368.588 796.62 368.044 797.021 367.642C797.423 367.241 797.967 367.015 798.535 367.015H802.182C802.75 367.015 803.294 367.241 803.696 367.642C804.097 368.044 804.323 368.588 804.323 369.156Z" fill="#E4F4FE"/>
    </g>
    <g style="mix-blend-mode:overlay" opacity="0.7">
      <path d="M813.599 389.686H802.182V634.707C802.182 634.707 802.182 654.048 809.555 654.603C809.555 654.603 812.251 655.634 813.599 650.798V389.686Z" fill="white"/>
    </g>
    <g opacity="0.5">
      <path opacity="0.5" d="M958.845 657.932C958.845 665.76 955.74 673.269 950.211 678.812C944.682 684.354 937.181 687.479 929.351 687.5V687.5C925.472 687.5 921.63 686.734 918.046 685.248C914.463 683.761 911.208 681.581 908.468 678.835C905.729 676.088 903.558 672.828 902.08 669.241C900.603 665.655 899.848 661.811 899.858 657.932V376.29H958.845V657.932Z" fill="#E4EEF3"/>
      <path opacity="0.5" d="M929.351 689.64C920.941 689.64 912.874 686.299 906.927 680.353C900.98 674.407 897.638 666.342 897.638 657.932V376.29C897.659 375.778 897.877 375.294 898.246 374.939C898.616 374.585 899.108 374.387 899.62 374.387H958.607C959.111 374.387 959.595 374.588 959.952 374.944C960.309 375.301 960.509 375.785 960.509 376.29V657.932C960.511 666.246 957.246 674.228 951.418 680.159C945.59 686.09 937.666 689.494 929.351 689.64V689.64ZM901.761 378.271V657.932C901.761 665.291 904.685 672.347 909.889 677.55C915.092 682.753 922.15 685.677 929.51 685.677C936.869 685.677 943.927 682.753 949.131 677.55C954.335 672.347 957.259 665.291 957.259 657.932V378.192L901.761 378.271Z" fill="#BEBEBE"/>
    </g>
    <path opacity="0.8" d="M902.871 483.541V656.347C902.871 663.411 905.678 670.185 910.673 675.18C915.669 680.175 922.445 682.981 929.51 682.981C936.575 682.981 943.351 680.175 948.347 675.18C953.342 670.185 956.149 663.411 956.149 656.347V483.541H902.871Z" fill="#C3368C"/>
    <g style="mix-blend-mode:multiply" opacity="0.4">
      <path d="M899.858 376.29V657.932C899.858 665.753 902.966 673.254 908.497 678.784C914.028 684.314 921.529 687.42 929.351 687.42C937.173 687.42 944.675 684.314 950.206 678.784C955.737 673.254 958.845 665.753 958.845 657.932V376.29H899.858ZM939.5 637.877C939.5 652.384 935.218 669.585 921.423 669.585C911.434 669.585 903.267 662.213 903.347 637.877V380.887L939.5 381.442V637.877Z" fill="#C3CCD1"/>
    </g>
    <g style="mix-blend-mode:multiply" opacity="0.5">
      <path d="M899.858 376.29V379.143H949.648V657.457C949.494 660.774 948.648 664.022 947.163 666.992C945.678 669.962 943.587 672.588 941.025 674.702C938.464 676.815 935.488 678.368 932.289 679.262C929.09 680.155 925.74 680.369 922.454 679.89C903.267 678.701 901.127 663.561 899.858 652.304V657.932C899.858 665.753 902.966 673.254 908.497 678.784C914.028 684.314 921.529 687.42 929.351 687.42C937.173 687.42 944.675 684.314 950.206 678.784C955.737 673.254 958.845 665.753 958.845 657.932V376.29H899.858Z" fill="#B5BDC2"/>
    </g>
    <g opacity="0.6">
      <path opacity="0.6" d="M965.266 369.631C965.266 371.397 964.565 373.091 963.316 374.34C962.067 375.588 960.373 376.29 958.607 376.29H900.017C898.257 376.269 896.575 375.561 895.33 374.317C894.086 373.072 893.378 371.391 893.357 369.631V369.631C893.378 367.872 894.086 366.19 895.33 364.946C896.575 363.701 898.257 362.993 900.017 362.973H958.607C959.481 362.973 960.347 363.145 961.155 363.48C961.963 363.814 962.697 364.305 963.316 364.923C963.934 365.541 964.425 366.275 964.759 367.083C965.094 367.891 965.266 368.757 965.266 369.631V369.631Z" fill="#E4EEF3"/>
      <path opacity="0.6" d="M958.607 378.192H900.017C897.746 378.192 895.568 377.29 893.962 375.685C892.356 374.079 891.454 371.902 891.454 369.631C891.454 367.361 892.356 365.183 893.962 363.578C895.568 361.972 897.746 361.07 900.017 361.07H958.607C960.878 361.07 963.056 361.972 964.661 363.578C966.267 365.183 967.169 367.361 967.169 369.631C967.169 371.902 966.267 374.079 964.661 375.685C963.056 377.29 960.878 378.192 958.607 378.192V378.192ZM900.017 364.637C898.755 364.637 897.545 365.138 896.653 366.03C895.761 366.922 895.26 368.132 895.26 369.393C895.26 370.655 895.761 371.865 896.653 372.756C897.545 373.648 898.755 374.15 900.017 374.15H958.607C959.868 374.15 961.078 373.648 961.97 372.756C962.863 371.865 963.364 370.655 963.364 369.393C963.364 368.132 962.863 366.922 961.97 366.03C961.078 365.138 959.868 364.637 958.607 364.637H900.017Z" fill="#BEBEBE"/>
    </g>
    <g style="mix-blend-mode:multiply" opacity="0.4">
      <path d="M958.607 362.973H900.017C898.25 362.973 896.557 363.674 895.308 364.923C894.059 366.172 893.357 367.865 893.357 369.631C893.357 371.397 894.059 373.091 895.308 374.34C896.557 375.588 898.25 376.29 900.017 376.29H958.607C960.373 376.29 962.067 375.588 963.316 374.34C964.565 373.091 965.266 371.397 965.266 369.631C965.266 367.865 964.565 366.172 963.316 364.923C962.067 363.674 960.373 362.973 958.607 362.973V362.973ZM937.676 373.278H900.81C899.842 373.278 898.915 372.893 898.231 372.21C897.547 371.526 897.163 370.598 897.163 369.631C897.163 368.664 897.547 367.737 898.231 367.053C898.915 366.369 899.842 365.985 900.81 365.985H937.676C938.643 365.985 939.571 366.369 940.255 367.053C940.939 367.737 941.323 368.664 941.323 369.631C941.323 370.598 940.939 371.526 940.255 372.21C939.571 372.893 938.643 373.278 937.676 373.278V373.278Z" fill="#C3CCD1"/>
    </g>
    <g style="mix-blend-mode:multiply" opacity="0.4">
      <path d="M958.607 362.973H948.141C949.521 363.224 950.791 363.89 951.783 364.881C952.774 365.872 953.44 367.142 953.691 368.521C953.99 370.184 953.682 371.898 952.823 373.353C951.965 374.807 950.613 375.906 949.013 376.448H958.607C960.373 376.448 962.067 375.747 963.316 374.498C964.565 373.249 965.266 371.556 965.266 369.79C965.266 368.024 964.565 366.33 963.316 365.081C962.067 363.833 960.373 363.131 958.607 363.131V362.973Z" fill="#C3CCD1"/>
    </g>
    <g style="mix-blend-mode:color-dodge" opacity="0.9">
      <path d="M907.628 369.156C907.607 369.73 907.364 370.275 906.95 370.674C906.536 371.073 905.983 371.296 905.408 371.296H901.84C901.265 371.296 900.712 371.073 900.298 370.674C899.884 370.275 899.641 369.73 899.62 369.156C899.641 368.581 899.884 368.036 900.298 367.637C900.712 367.238 901.265 367.015 901.84 367.015H905.408C905.983 367.015 906.536 367.238 906.95 367.637C907.364 368.036 907.607 368.581 907.628 369.156Z" fill="#E4F4FE"/>
    </g>
    <g style="mix-blend-mode:overlay" opacity="0.7">
      <path d="M916.825 389.686H905.408V634.707C905.408 634.707 905.408 654.048 912.781 654.603C912.781 654.603 915.477 655.634 916.825 650.798V389.686Z" fill="white"/>
    </g>
    <path d="M991.668 460.156H979.617V698.597H991.668V460.156Z" fill="#3E4242"/>
    <path d="M991.668 700.5H979.617C979.112 700.5 978.628 700.299 978.271 699.943C977.914 699.586 977.714 699.102 977.714 698.597V460.156C977.714 459.652 977.914 459.168 978.271 458.811C978.628 458.454 979.112 458.254 979.617 458.254H991.668C992.18 458.253 992.672 458.451 993.042 458.806C993.411 459.161 993.629 459.645 993.65 460.156V698.597C993.629 699.109 993.411 699.593 993.042 699.948C992.672 700.302 992.18 700.5 991.668 700.5V700.5ZM981.599 696.616H989.527V462.059H981.599V696.616Z" fill="#535453"/>
    <g style="mix-blend-mode:multiply">
      <path d="M984.374 460.156H979.617V698.597H984.374V460.156Z" fill="#8B9194"/>
    </g>
    <path d="M566.395 460.156H554.344V698.597H566.395V460.156Z" fill="#3E4242"/>
    <path d="M566.395 700.5H554.344C553.84 700.5 553.356 700.299 552.999 699.943C552.642 699.586 552.441 699.102 552.441 698.597V460.156C552.441 459.652 552.642 459.168 552.999 458.811C553.356 458.454 553.84 458.254 554.344 458.254H566.395C566.9 458.254 567.384 458.454 567.741 458.811C568.097 459.168 568.298 459.652 568.298 460.156V698.597C568.298 699.102 568.097 699.586 567.741 699.943C567.384 700.299 566.9 700.5 566.395 700.5ZM556.247 696.616H564.175V462.059H556.247V696.616Z" fill="#535453"/>
    <g style="mix-blend-mode:multiply">
      <path d="M566.395 460.156H561.638V698.597H566.395V460.156Z" fill="#8B9194"/>
    </g>
    <path d="M1006.1 687.658H539.915V718.098H1006.1V687.658Z" fill="#8B9194"/>
    <path d="M1006.1 720H539.915C539.41 720 538.926 719.8 538.569 719.443C538.212 719.086 538.012 718.602 538.012 718.098V687.658C538.012 687.146 538.209 686.654 538.564 686.284C538.919 685.915 539.403 685.697 539.915 685.677H1006.1C1006.35 685.676 1006.61 685.728 1006.84 685.829C1007.08 685.929 1007.29 686.076 1007.47 686.261C1007.65 686.447 1007.79 686.666 1007.88 686.906C1007.97 687.146 1008.01 687.402 1008 687.658V718.098C1008 718.602 1007.8 719.086 1007.44 719.443C1007.09 719.8 1006.6 720 1006.1 720V720ZM541.817 716.116H1004.19V689.64H541.817V716.116Z" fill="#535453"/>
    <g style="mix-blend-mode:multiply">
      <path d="M1006.1 706.128H539.915V718.098H1006.1V706.128Z" fill="#8B9194"/>
    </g>
    <g style="mix-blend-mode:screen">
      <path d="M1006.1 693.286H539.915V701.53H1006.1V693.286Z" fill="#8B9194"/>
    </g>
    <path d="M1005.78 456.906H540.153V472.443H1005.78V456.906Z" fill="#8B9194"/>
    <path d="M1005.86 474.425H540.153C539.648 474.425 539.164 474.224 538.807 473.868C538.45 473.511 538.25 473.027 538.25 472.522V456.668C538.25 456.164 538.45 455.68 538.807 455.323C539.164 454.966 539.648 454.766 540.153 454.766H1005.86C1006.36 454.766 1006.85 454.966 1007.2 455.323C1007.56 455.68 1007.76 456.164 1007.76 456.668V472.522C1007.76 473.027 1007.56 473.511 1007.2 473.868C1006.85 474.224 1006.36 474.425 1005.86 474.425V474.425ZM542.135 470.541H1003.96V458.809H542.135V470.541Z" fill="#535453"/>
    <g style="mix-blend-mode:multiply">
      <path d="M1005.78 466.339H540.153V472.443H1005.78V466.339Z" fill="#8B9194"/>
    </g>
    <g style="mix-blend-mode:screen">
      <path d="M1005.78 459.839H540.153V464.04H1005.78V459.839Z" fill="#8B9194"/>
    </g>
    <g opacity="0.5">
      <path opacity="0.5" d="M378.337 460.236V241.136H284.546V460.236L170.775 675.372C170.775 675.372 144.215 718.098 213.508 718.098H449.374C519.54 718.098 492.108 675.372 492.108 675.372L378.337 460.236Z" fill="#E4EEF3"/>
      <path opacity="0.5" d="M449.374 720H213.508C188.455 720 172.678 714.451 166.573 703.512C159.279 690.433 168.714 674.975 169.11 674.341L282.564 459.76V241.136C282.584 240.624 282.802 240.141 283.171 239.786C283.541 239.431 284.033 239.233 284.546 239.234H378.337C378.842 239.234 379.326 239.434 379.682 239.791C380.039 240.148 380.24 240.632 380.24 241.136V459.76L493.773 674.42C493.773 674.975 503.842 690.274 496.706 703.433C490.681 714.372 474.824 720 449.374 720ZM286.448 243.039V460.236C286.53 460.521 286.53 460.823 286.448 461.107L172.44 676.243C172.44 676.243 163.798 690.591 169.903 701.61C175.294 711.28 189.961 716.116 213.508 716.116H449.374C473.159 716.116 488.064 711.201 493.376 701.53C499.402 690.512 490.601 676.561 490.522 676.402L376.672 461.107C376.591 460.823 376.591 460.521 376.672 460.236V243.039H286.448Z" fill="#BEBEBE"/>
    </g>
    <g opacity="0.8">
      <path opacity="0.8" d="M484.1 670.536L408.623 526.98H254.735L177.355 672.122C177.355 672.122 152.778 712.549 216.997 712.549C281.216 712.549 370.092 713.817 435.024 713.024C510.263 712.073 484.1 670.536 484.1 670.536Z" fill="#345EA9"/>
    </g>
    <g opacity="0.6">
      <path opacity="0.6" d="M392.053 229.88C392.022 231.358 391.7 232.816 391.106 234.17C390.511 235.524 389.656 236.747 388.588 237.77C387.52 238.794 386.262 239.597 384.884 240.133C383.506 240.67 382.035 240.93 380.557 240.898H282.326C279.387 240.879 276.57 239.719 274.47 237.664C272.369 235.608 271.15 232.817 271.068 229.88V229.88C271.088 226.908 272.284 224.066 274.393 221.972C276.502 219.878 279.354 218.703 282.326 218.703H380.557C382.051 218.661 383.539 218.918 384.932 219.461C386.325 220.004 387.595 220.82 388.667 221.862C389.739 222.905 390.591 224.151 391.173 225.528C391.754 226.905 392.053 228.385 392.053 229.88V229.88Z" fill="#E4EEF3"/>
      <path opacity="0.6" d="M380.557 242.801H282.326C280.517 242.942 278.698 242.707 276.985 242.111C275.271 241.516 273.699 240.572 272.367 239.34C271.035 238.109 269.973 236.615 269.246 234.952C268.519 233.29 268.144 231.496 268.144 229.682C268.144 227.868 268.519 226.073 269.246 224.411C269.973 222.749 271.035 221.255 272.367 220.023C273.699 218.791 275.271 217.848 276.985 217.252C278.698 216.657 280.517 216.422 282.326 216.563H380.557C383.861 216.82 386.946 218.313 389.197 220.745C391.447 223.177 392.697 226.369 392.697 229.682C392.697 232.995 391.447 236.186 389.197 238.618C386.946 241.05 383.861 242.544 380.557 242.801V242.801ZM282.326 220.368C279.866 220.368 277.506 221.345 275.766 223.084C274.027 224.823 273.05 227.182 273.05 229.642C273.05 232.102 274.027 234.461 275.766 236.2C277.506 237.94 279.866 238.917 282.326 238.917H380.557C383.017 238.917 385.377 237.94 387.116 236.2C388.856 234.461 389.833 232.102 389.833 229.642C389.833 227.182 388.856 224.823 387.116 223.084C385.377 221.345 383.017 220.368 380.557 220.368H282.326Z" fill="#BEBEBE"/>
      <g style="mix-blend-mode:multiply" opacity="0.4">
        <path d="M380.557 218.465H282.326C280.773 218.335 279.21 218.528 277.736 219.032C276.262 219.537 274.909 220.341 273.762 221.396C272.615 222.45 271.699 223.731 271.073 225.157C270.447 226.583 270.123 228.124 270.123 229.682C270.123 231.24 270.447 232.78 271.073 234.207C271.699 235.633 272.615 236.914 273.762 237.968C274.909 239.022 276.262 239.827 277.736 240.332C279.21 240.836 280.773 241.029 282.326 240.898H380.557C383.369 240.662 385.99 239.378 387.901 237.3C389.811 235.223 390.871 232.504 390.871 229.682C390.871 226.86 389.811 224.141 387.901 222.064C385.99 219.986 383.369 218.702 380.557 218.465ZM345.672 235.825H283.673C282.778 235.969 281.863 235.917 280.99 235.672C280.117 235.428 279.307 234.996 278.617 234.409C277.927 233.821 277.373 233.09 276.993 232.267C276.613 231.444 276.417 230.549 276.417 229.642C276.417 228.736 276.613 227.84 276.993 227.017C277.373 226.194 277.927 225.464 278.617 224.876C279.307 224.288 280.117 223.857 280.99 223.612C281.863 223.368 282.778 223.316 283.673 223.459H345.672C346.567 223.316 347.483 223.368 348.356 223.612C349.229 223.857 350.038 224.288 350.728 224.876C351.418 225.464 351.972 226.194 352.352 227.017C352.732 227.84 352.929 228.736 352.929 229.642C352.929 230.549 352.732 231.444 352.352 232.267C351.972 233.09 351.418 233.821 350.728 234.409C350.038 234.996 349.229 235.428 348.356 235.672C347.483 235.917 346.567 235.969 345.672 235.825Z" fill="#C3CCD1"/>
      </g>
      <g style="mix-blend-mode:color-dodge" opacity="0.9">
        <path d="M295.011 228.85C295.011 229.817 294.626 230.744 293.942 231.428C293.259 232.112 292.331 232.496 291.364 232.496H285.417C284.457 232.476 283.541 232.085 282.861 231.406C282.181 230.726 281.791 229.81 281.77 228.85V228.85C281.791 227.889 282.181 226.973 282.861 226.294C283.541 225.614 284.457 225.223 285.417 225.203H291.522C292.489 225.203 293.417 225.587 294.101 226.271C294.785 226.955 295.169 227.882 295.169 228.85H295.011Z" fill="#E4F4FE"/>
      </g>
      <g style="mix-blend-mode:multiply" opacity="0.4">
        <path d="M380.557 218.465H363.194C365.528 218.888 367.679 220.009 369.363 221.678C371.047 223.348 372.186 225.489 372.629 227.819C373.01 230.578 372.43 233.384 370.986 235.766C369.543 238.147 367.323 239.96 364.7 240.898H380.557C383.369 240.662 385.99 239.378 387.901 237.3C389.811 235.223 390.871 232.504 390.871 229.682C390.871 226.86 389.811 224.141 387.901 222.063C385.99 219.986 383.369 218.702 380.557 218.465V218.465Z" fill="#C3CCD1"/>
      </g>
      <g style="mix-blend-mode:multiply" opacity="0.4">
        <path d="M492.108 675.372L378.337 460.236V241.136H284.545V460.236L170.775 675.372C170.775 675.372 144.215 718.098 213.508 718.098H449.374C519.539 718.098 492.108 675.372 492.108 675.372ZM370.091 694.951H214.618C187.821 690.512 202.012 664.274 202.012 664.274L293.346 458.492V249.459H342.105V460.711C342.105 460.711 395.858 643.03 400.615 665.939C406.72 694.951 370.091 694.951 370.091 694.951Z" fill="#C3CCD1"/>
      </g>
    </g>
    <g style="mix-blend-mode:multiply" opacity="0.5">
      <path d="M492.108 675.372L378.337 460.236V241.136H358.437L358.041 241.77V456.827C358.041 456.827 453.814 662.926 454.924 684.487C456.034 706.049 405.689 704.225 405.689 704.225H183.698C165.066 697.091 173.788 670.853 173.788 670.853H173.233L171.013 675.134C171.013 675.134 144.453 717.86 213.746 717.86H449.374C519.539 718.098 492.108 675.372 492.108 675.372Z" fill="#B5BDC2"/>
    </g>
    <g style="mix-blend-mode:overlay" opacity="0.7">
      <path d="M307.141 253.661H299.213V458.492L214.063 661.024C214.063 661.024 203.122 681.237 217.869 684.805H243.636C247.176 685.479 250.84 684.929 254.025 683.243C257.21 681.557 259.725 678.837 261.157 675.53C266.073 663.481 319.747 457.699 319.747 457.699V253.661H307.141Z" fill="white"/>
    </g>
  </g>
  <defs>
    <clipPath id="clip0">
      <rect width="1008" height="720" fill="white"/>
    </clipPath>
  </defs>
</svg>
