<svg width="127" height="127" viewBox="0 0 127 127" fill="none"
  xmlns="http://www.w3.org/2000/svg">
  <!-- <circle cx="63.5" cy="63.5" r="63.5" fill="#fff"/> -->
  <path fill-rule="evenodd" clip-rule="evenodd" d="M96.4155 27.3537C90.5661 29.7244 26.0986 57.6919 25.6356 58.0599C25.2902 58.3341 24.7281 59.2205 24.3868 60.0298C23.8349 61.3363 23.855 61.6835 24.5673 63.1258C25.2782 64.5645 26.2304 65.1912 32.9015 68.6092L40.4328 72.4685L42.5083 71.0629C43.6495 70.2898 52.1236 64.4624 61.3395 58.1134C83.1832 43.064 82.2944 43.6531 82.8672 43.8419C83.1398 43.9322 75.306 51.6225 65.4588 60.9316C53.5419 72.1974 47.3935 78.3132 47.074 79.2204C46.4574 80.9718 46.4507 94.7386 47.0655 96.9301C47.6236 98.9191 49.1183 100 51.3109 100C53.5651 100 54.3797 99.0942 59.1853 91.242C61.4762 87.499 63.4508 84.4357 63.5736 84.4348C63.6965 84.4344 67.919 86.5401 72.957 89.1146C78.8033 92.1022 82.6228 93.7979 83.5151 93.8019C85.2135 93.8094 86.6291 93.1097 87.2542 91.9532C87.9825 90.6064 101.999 33.0853 102 31.4395C102.001 29.4037 101.292 28.2932 99.5219 27.5612C97.8199 26.8575 97.6653 26.8473 96.4155 27.3537Z" fill="white"/>
</svg>
