<svg width="900" height="191" viewBox="0 0 900 191" fill="none"
  xmlns="http://www.w3.org/2000/svg">
  <path d="M0 87.83L21.5 83.5765C43 79.4135 86 70.9065 128.8 72.1735C171.7 73.35 214.3 84.21 257.2 92.536C300 100.772 343 106.564 385.8 95.975C428.7 85.3865 471.3 58.5985 514.2 49.096C557 39.5935 600 47.3765 642.8 52.8065C685.7 58.2365 728.3 61.3135 771.2 52.2635C814 43.2135 857 22.0365 878.5 11.5385L900 0.949982V191.905H878.5C857 191.905 814 191.905 771.2 191.905C728.3 191.905 685.7 191.905 642.8 191.905C600 191.905 557 191.905 514.2 191.905C471.3 191.905 428.7 191.905 385.8 191.905C343 191.905 300 191.905 257.2 191.905C214.3 191.905 171.7 191.905 128.8 191.905C86 191.905 43 191.905 21.5 191.905H0V87.83Z" fill="#FFADAD"/>
</svg>
