<svg id="Layer_1" data-name="Layer 1" xmlns="http://www.w3.org/2000/svg" viewBox="0 0 1044.86 1542.25"><defs><style>.cls-1{fill:red;}</style></defs><title>heart</title><path class="cls-1" d="M1104.19,939.61c-8.45,10.77-62.06,65.48-72.16,75.31l-65.42,64.59-29.53,27.21-67.67,67.67L719.62,1324.24v-49.51c15.2-215.21,24.37-224.42,69-281.81l215.84-222.54,1.21-1.11c.45.5,146.32-144.49,146.66-144C1208.28,792,1185.44,836.15,1104.19,939.61Z" transform="translate(-154.14 -625.22)"/><path class="cls-1" d="M486.42,1802.33,622,1724.86l14.68-8.37.05,0c14.15-10.61,24.44-26.92,26.59-48.11a175.87,175.87,0,0,0,.76-22.57l1.77-312.24c0-5.42-.27-10.81-.78-16.15a40.79,40.79,0,0,0,.78-7.51v-38c0-100.2-43.84-132.46-91.68-137.92a80.82,80.82,0,0,0-11.91-1.56c-62.66-3.37-127.38,29.72-145.9,40-145.91,71.91-64.89,275-57.58,292.55.33.76.72,1.53,1.1,2.24l11.4,21.94,16.47,31.72-.84-26.42s-2-36.94,4.78-52c19.93-44,88.42-78.84,88.42-78.84s94.51-47.89,94.51,49.55c0,107-1.54,209.82-1.54,209.82a43,43,0,0,1-.05,5.39c-.3,14-2.47,31.56-17.94,39.65l-106.31,62.33-92-175.9a75,75,0,0,1-3.83-8.51l-20.51-39.45c-24.92-48-40.41-100.38-43.95-154.33-4.35-67.19,9-145.86,83.55-181.44,0,0-209.89,55.73-217.86,310.79a113.79,113.79,0,0,0,1.33,19.15c2.23,37.31,11.39,73.87,28,106.69L308,1853.75c195.25,354.48,162.59,312.14,368.57,312.14Z" transform="translate(-154.14 -625.22)"/><path class="cls-1" d="M1164.09,1765.2a118.69,118.69,0,0,0-84.31-35H900.17a76,76,0,0,1-76-76v-92c0-.24-.07-.46-.07-.7V1434.86a347.39,347.39,0,0,1,0-35.32v-2.26a114.62,114.62,0,0,1,0-16.68v-16.07c0-25.44-1.5-41.84,10.43-63.8l-70.88,63.33a155.47,155.47,0,0,0-45.53,110v92.1l.29,117.41c.24,90.44,75.27,158.38,153,156.9,0,0,121.61-1,157.48-1s34.67,43,34.67,43l3.58,159.06c0,69.34-9.56,124,127.12,124,1.54,0,3.11,0,4.69-.05v-316A118.84,118.84,0,0,0,1164.09,1765.2Z" transform="translate(-154.14 -625.22)"/><path class="cls-1" d="M930.79,1201.73a226,226,0,0,0-66.24,159.9v294.75a27.92,27.92,0,0,0,27.93,27.92h32.77V1578.46a197.16,197.16,0,0,1,41.32-120.77l34.54-33.34,107.34-103.57c35-33.76,86.48-85.59,86.48-190.59l1.3-193.9Z" transform="translate(-154.14 -625.22)"/></svg>