<svg id="Layer_1" data-name="Layer 1" xmlns="http://www.w3.org/2000/svg" viewBox="0 0 207.8 396.14"><defs><style>.cls-1{fill:#ec1c24;}.cls-2{fill:none;}.cls-3{fill:#404041;}.cls-4{fill:#fff;}</style></defs><title>logo mobile</title><path class="cls-1" d="M713.08,1420.82A10,10,0,0,1,711,1422Z" transform="translate(-616.2 -1234.95)"/><path class="cls-1" d="M696.38,1431.57" transform="translate(-616.2 -1234.95)"/><path class="cls-2" d="M731.77,1402.29" transform="translate(-616.2 -1234.95)"/><path class="cls-1" d="M772.53,1323.86" transform="translate(-616.2 -1234.95)"/><line class="cls-2" x1="143.08" y1="140.54" x2="133.81" y2="149.8"/><path class="cls-2" d="M740.1,1374.82v-2.4A14.43,14.43,0,0,0,740.1,1374.82Z" transform="translate(-616.2 -1234.95)"/><path class="cls-2" d="M740.1,1380.24v-5.09A47.31,47.31,0,0,0,740.1,1380.24Z" transform="translate(-616.2 -1234.95)"/><path class="cls-1" d="M740.1,1374.82v.33a1.55,1.55,0,0,1,0-.22A.63.63,0,0,1,740.1,1374.82Z" transform="translate(-616.2 -1234.95)"/><path class="cls-3" d="M731.9,1549.05a.51.51,0,0,1,0,.25l-5.37,12.3a6.24,6.24,0,0,1-1.1,1.85,3.81,3.81,0,0,1-1.21.89v9.89a.74.74,0,0,1-.71.71h-4.66a.68.68,0,0,1-.5-.22.67.67,0,0,1-.21-.49v-9.89a4.12,4.12,0,0,1-1.23-.89,6.23,6.23,0,0,1-1.12-1.85l-5.37-12.3a.73.73,0,0,1,0-.25.59.59,0,0,1,.14-.38.56.56,0,0,1,.43-.15H716a.61.61,0,0,1,.46.17,1,1,0,0,1,.25.43l3.84,10a1.23,1.23,0,0,0,.25.44.41.41,0,0,0,.28.09.44.44,0,0,0,.29-.09,1.4,1.4,0,0,0,.25-.44l3.84-10a.89.89,0,0,1,.25-.43.6.6,0,0,1,.46-.17h5.12a.58.58,0,0,1,.43.15A.59.59,0,0,1,731.9,1549.05Z" transform="translate(-616.2 -1234.95)"/><path class="cls-3" d="M749.36,1574.79c-.62.1-1.44.2-2.47.31s-2.51.16-4.43.16a18.36,18.36,0,0,1-3.28-.29,7,7,0,0,1-2.77-1.1,5.63,5.63,0,0,1-1.91-2.33,9.2,9.2,0,0,1-.72-3.93V1555.8a9.07,9.07,0,0,1,.72-3.91,5.7,5.7,0,0,1,1.91-2.31,7.2,7.2,0,0,1,2.79-1.1,18.67,18.67,0,0,1,3.3-.29c.94,0,1.78,0,2.5.06s1.36.08,1.91.12l1.4.15c.39,0,.74.09,1.05.14.47.07.71.31.71.71v3.31a.67.67,0,0,1-.21.49.68.68,0,0,1-.5.22h-7.22a2.45,2.45,0,0,0-1.76.51,2.72,2.72,0,0,0-.52,1.9V1559h9.21a.69.69,0,0,1,.5.21.72.72,0,0,1,.22.5v3.38a.7.7,0,0,1-.22.5.69.69,0,0,1-.5.21h-9.21v3.77a2.68,2.68,0,0,0,.52,1.9,2.4,2.4,0,0,0,1.76.52h7.22a.7.7,0,0,1,.5.21.69.69,0,0,1,.21.5v3.31C750.07,1574.48,749.83,1574.72,749.36,1574.79Z" transform="translate(-616.2 -1234.95)"/><path class="cls-3" d="M772.51,1553.69a.75.75,0,0,1-.39.09H772l-3.2-.18c-1.28-.07-2.68-.11-4.2-.11a6.16,6.16,0,0,0-1.93.29,3.17,3.17,0,0,0-1.48,1,4.63,4.63,0,0,0-.92,1.86,11.07,11.07,0,0,0-.32,2.92V1564a10.21,10.21,0,0,0,.37,3,5.26,5.26,0,0,0,1,1.85,3,3,0,0,0,1.3.92,4,4,0,0,0,1.35.25c1,0,1.88,0,2.74-.11v-8.18a.69.69,0,0,1,.19-.49.61.61,0,0,1,.48-.22h4.55a.66.66,0,0,1,.5.22.68.68,0,0,1,.22.49v12a.78.78,0,0,1-.72.82c-1,.19-2.09.36-3.37.52a40,40,0,0,1-4.59.23,11.21,11.21,0,0,1-2.15-.22,9.69,9.69,0,0,1-2.28-.71,9.18,9.18,0,0,1-2.15-1.35,8.92,8.92,0,0,1-1.83-2.1,10.07,10.07,0,0,1-1.26-3,15.25,15.25,0,0,1-.47-4v-4.41a14,14,0,0,1,1-5.6,9.18,9.18,0,0,1,2.51-3.47,8.84,8.84,0,0,1,3.49-1.78,15.47,15.47,0,0,1,3.85-.5,29.5,29.5,0,0,1,4.56.31q1.88.3,2.88.51.6.1.6.54v3.77A.41.41,0,0,1,772.51,1553.69Z" transform="translate(-616.2 -1234.95)"/><path class="cls-3" d="M798,1574.55a1.37,1.37,0,0,1-1,.39h-3.49a2.36,2.36,0,0,1-1-.2,2.18,2.18,0,0,1-.85-.9l-8.11-14c-.12-.19-.23-.28-.32-.28s-.18.09-.18.28v14.41a.67.67,0,0,1-.21.49.68.68,0,0,1-.5.22h-4.2a.68.68,0,0,1-.5-.22.67.67,0,0,1-.21-.49v-24.36a1.33,1.33,0,0,1,1.35-1.35h3.59a1.3,1.3,0,0,1,.86.26,3.26,3.26,0,0,1,.64.84l8.43,14.65c.11.19.21.28.28.28s.18-.1.18-.32v-15a.63.63,0,0,1,.21-.48.71.71,0,0,1,.5-.19h4.2a.7.7,0,0,1,.49.19.61.61,0,0,1,.22.48v24.4A1.3,1.3,0,0,1,798,1574.55Z" transform="translate(-616.2 -1234.95)"/><path class="cls-3" d="M824,1574.37q0,.57-.6.57h-5a.64.64,0,0,1-.47-.18,1,1,0,0,1-.24-.46l-1.28-5.84h-7.29l-1.28,5.84a1.07,1.07,0,0,1-.25.46.64.64,0,0,1-.47.18h-5c-.41,0-.61-.19-.61-.57a.14.14,0,0,1,0-.07.31.31,0,0,0,0-.11l5.3-22a5.54,5.54,0,0,1,.92-2.06,4.15,4.15,0,0,1,1.4-1.19,5.65,5.65,0,0,1,1.73-.55,11.54,11.54,0,0,1,1.85-.15,11.2,11.2,0,0,1,1.83.15,5.7,5.7,0,0,1,1.71.55,4.15,4.15,0,0,1,1.4,1.19,5.7,5.7,0,0,1,.93,2.06l5.29,22a.31.31,0,0,0,0,.11A.14.14,0,0,1,824,1574.37Zm-10.74-20.59a1.71,1.71,0,0,0-.14-.41.36.36,0,0,0-.32-.13c-.26,0-.43.18-.5.54l-2.17,9.81h5.3Z" transform="translate(-616.2 -1234.95)"/><path class="cls-3" d="M738.06,1630.25a13.69,13.69,0,0,1-2,.32c-.86.09-1.77.18-2.73.26s-1.94.15-2.93.19-1.91.07-2.76.07a32.93,32.93,0,0,1-6-.52,12.54,12.54,0,0,1-5-2,10.28,10.28,0,0,1-3.44-4.21,16.72,16.72,0,0,1-1.29-7.1V1584a1.32,1.32,0,0,1,1.29-1.28h8.42a1.27,1.27,0,0,1,.9.38,1.23,1.23,0,0,1,.38.9v33.24a4.87,4.87,0,0,0,.94,3.44,4.41,4.41,0,0,0,3.18.93h11a1.33,1.33,0,0,1,1.29,1.28v6Q739.35,1630,738.06,1630.25Z" transform="translate(-616.2 -1234.95)"/><path class="cls-3" d="M782.55,1629.48c0,.69-.37,1-1.1,1h-9a1.14,1.14,0,0,1-.84-.32,1.67,1.67,0,0,1-.45-.84l-2.31-10.54H755.68l-2.32,10.54a1.67,1.67,0,0,1-.45.84,1.13,1.13,0,0,1-.83.32h-9c-.73,0-1.09-.34-1.09-1a.31.31,0,0,1,0-.13.44.44,0,0,0,0-.19l9.58-39.85a9.84,9.84,0,0,1,1.67-3.73,7.64,7.64,0,0,1,2.54-2.16,10.17,10.17,0,0,1,3.12-1,22,22,0,0,1,3.34-.26,21.52,21.52,0,0,1,3.31.26,10.19,10.19,0,0,1,3.08,1,7.64,7.64,0,0,1,2.54,2.16,9.84,9.84,0,0,1,1.67,3.73l9.58,39.85a.44.44,0,0,0,0,.19A.22.22,0,0,1,782.55,1629.48Zm-19.42-37.22a3.26,3.26,0,0,0-.25-.74c-.09-.15-.28-.22-.58-.22q-.7,0-.9,1L757.48,1610h9.58Z" transform="translate(-616.2 -1234.95)"/><path class="cls-3" d="M823.81,1616.69a14,14,0,0,1-1.6,7,12.13,12.13,0,0,1-4.34,4.43,18.49,18.49,0,0,1-6.43,2.29,46.8,46.8,0,0,1-7.87.64c-1.08,0-2.17,0-3.28-.07s-2.2-.09-3.25-.16-2-.14-2.92-.22-1.67-.19-2.32-.32a4.89,4.89,0,0,1-2.73-1.16,4.36,4.36,0,0,1-.8-3v-39.08a4.49,4.49,0,0,1,.77-3,4.58,4.58,0,0,1,2.63-1.15c.56-.09,1.28-.17,2.16-.26s1.84-.16,2.89-.23l3.25-.16q1.66-.06,3.21-.06a45.73,45.73,0,0,1,8.29.68,19.68,19.68,0,0,1,6.4,2.21,11,11,0,0,1,4.14,4.12,12.65,12.65,0,0,1,1.48,6.42v1.16a11.35,11.35,0,0,1-1.41,5.66,9.19,9.19,0,0,1-4,3.79,10.23,10.23,0,0,1,5.72,9.51Zm-10.92-20.38a4.32,4.32,0,0,0-2-3.89c-1.31-.83-3.62-1.25-6.91-1.25h-2.48q-.74,0-1.41,0l-1,0v11.13h7.2a10.12,10.12,0,0,0,3.18-.42,5.45,5.45,0,0,0,2-1.1,3.83,3.83,0,0,0,1.07-1.6,6.1,6.1,0,0,0,.32-2Zm.25,19.41a5.93,5.93,0,0,0-1.47-4q-1.49-1.71-5.34-1.71h-7.2v12h1.13l1.54,0,1.54,0h1.06q5,0,6.85-1.48a5,5,0,0,0,1.89-4.18Z" transform="translate(-616.2 -1234.95)"/><path class="cls-2" d="M661.36,1351.42c-.76.71-1.44,1.38-2,2Z" transform="translate(-616.2 -1234.95)"/><path class="cls-4" d="M703.92,1407.35c0,.25,0,.51,0,.78A6.74,6.74,0,0,0,703.92,1407.35Z" transform="translate(-616.2 -1234.95)"/><path class="cls-1" d="M800.46,1308.87c-1.22,1.55-9,9.43-10.4,10.85l-9.43,9.31-4.25,3.92-9.76,9.75L745,1364.3v-7.14c2.19-31,3.51-32.34,9.94-40.61l31.11-32.07.17-.16c.07.07,21.09-20.83,21.14-20.76C815.46,1287.59,812.17,1294,800.46,1308.87Z" transform="translate(-616.2 -1234.95)"/><path class="cls-1" d="M711.43,1433.2,731,1422l2.11-1.21h0a9.7,9.7,0,0,0,3.83-6.94,23.33,23.33,0,0,0,.11-3.25l.26-45c0-.78,0-1.55-.11-2.33a6.38,6.38,0,0,0,.11-1.08v-5.47c0-14.44-6.32-19.09-13.22-19.88a12.11,12.11,0,0,0-1.71-.22c-9-.49-18.36,4.28-21,5.77-21,10.36-9.35,39.64-8.3,42.16l.16.32,1.65,3.16,2.37,4.57-.12-3.8s-.29-5.33.69-7.5c2.87-6.34,12.74-11.36,12.74-11.36s13.62-6.9,13.62,7.14c0,15.42-.22,30.24-.22,30.24a6.74,6.74,0,0,1,0,.78c0,2-.35,4.54-2.58,5.71l-15.32,9-13.26-25.35a10.24,10.24,0,0,1-.56-1.22l-3-5.69a56.35,56.35,0,0,1-6.34-22.24c-.62-9.68,1.3-21,12-26.15,0,0-30.24,8-31.39,44.79a16,16,0,0,0,.19,2.76,39.29,39.29,0,0,0,4,15.38l18,35.5c28.14,51.09,23.43,45,53.11,45Z" transform="translate(-616.2 -1234.95)"/><path class="cls-1" d="M809.09,1427.84a17.12,17.12,0,0,0-12.15-5H771.06a11,11,0,0,1-10.95-11V1398.6a.31.31,0,0,1,0-.1v-18.26a47.31,47.31,0,0,1,0-5.09v-.33a14.43,14.43,0,0,1,0-2.4v-2.32c0-3.66-.22-6,1.5-9.19L751.38,1370a22.45,22.45,0,0,0-6.56,15.85v13.27l0,16.92c0,13,10.85,22.83,22.06,22.61,0,0,17.53-.14,22.69-.14s5,6.2,5,6.2l.52,22.92c0,10-1.38,17.88,18.32,17.88h.67V1440A17.13,17.13,0,0,0,809.09,1427.84Z" transform="translate(-616.2 -1234.95)"/><path class="cls-1" d="M775.47,1346.64a32.55,32.55,0,0,0-9.55,23v42.48a4,4,0,0,0,4,4h4.72v-15.26a28.33,28.33,0,0,1,6-17.4l5-4.81,15.47-14.92c5-4.87,12.46-12.34,12.46-27.47l.19-27.94Z" transform="translate(-616.2 -1234.95)"/><rect class="cls-2" width="206.75" height="280.71"/><rect class="cls-1" x="100.8" y="268.69" width="97" height="5.24"/></svg>